<mxfile host="app.diagrams.net" agent="Mozilla/5.0 (Windows NT 10.0; Win64; x64) AppleWebKit/537.36 (KHTML, like Gecko) Chrome/131.0.0.0 Safari/537.36" version="26.2.12">
  <diagram name="Page-1" id="TJh7XokDNPDMhZ4tgfty">
    <mxGraphModel dx="778" dy="354" grid="1" gridSize="10" guides="1" tooltips="1" connect="1" arrows="1" fold="1" page="1" pageScale="1" pageWidth="3300" pageHeight="2339" math="0" shadow="0">
      <root>
        <mxCell id="0" />
        <mxCell id="1" parent="0" />
        <mxCell id="6EDu84q0JYohri3k5mZR-9" value="Classname" style="swimlane;fontStyle=0;childLayout=stackLayout;horizontal=1;startSize=26;fillColor=none;horizontalStack=0;resizeParent=1;resizeParentMax=0;resizeLast=0;collapsible=1;marginBottom=0;whiteSpace=wrap;html=1;" vertex="1" parent="1">
          <mxGeometry x="230" y="200" width="140" height="250" as="geometry" />
        </mxCell>
        <mxCell id="6EDu84q0JYohri3k5mZR-10" value="+ nik:Int" style="text;strokeColor=none;fillColor=none;align=left;verticalAlign=top;spacingLeft=4;spacingRight=4;overflow=hidden;rotatable=0;points=[[0,0.5],[1,0.5]];portConstraint=eastwest;whiteSpace=wrap;html=1;" vertex="1" parent="6EDu84q0JYohri3k5mZR-9">
          <mxGeometry y="26" width="140" height="26" as="geometry" />
        </mxCell>
        <mxCell id="6EDu84q0JYohri3k5mZR-11" value="+ name:String" style="text;strokeColor=none;fillColor=none;align=left;verticalAlign=top;spacingLeft=4;spacingRight=4;overflow=hidden;rotatable=0;points=[[0,0.5],[1,0.5]];portConstraint=eastwest;whiteSpace=wrap;html=1;" vertex="1" parent="6EDu84q0JYohri3k5mZR-9">
          <mxGeometry y="52" width="140" height="26" as="geometry" />
        </mxCell>
        <mxCell id="6EDu84q0JYohri3k5mZR-12" value="- password:String" style="text;strokeColor=none;fillColor=none;align=left;verticalAlign=top;spacingLeft=4;spacingRight=4;overflow=hidden;rotatable=0;points=[[0,0.5],[1,0.5]];portConstraint=eastwest;whiteSpace=wrap;html=1;" vertex="1" parent="6EDu84q0JYohri3k5mZR-9">
          <mxGeometry y="78" width="140" height="26" as="geometry" />
        </mxCell>
        <mxCell id="6EDu84q0JYohri3k5mZR-13" value="+ telp:Int" style="text;strokeColor=none;fillColor=none;align=left;verticalAlign=top;spacingLeft=4;spacingRight=4;overflow=hidden;rotatable=0;points=[[0,0.5],[1,0.5]];portConstraint=eastwest;html=1;whiteSpace=wrap;" vertex="1" parent="6EDu84q0JYohri3k5mZR-9">
          <mxGeometry y="104" width="140" height="26" as="geometry" />
        </mxCell>
        <mxCell id="6EDu84q0JYohri3k5mZR-14" value="+ enum(&#39;masyarakat,&amp;nbsp; &amp;nbsp; &amp;nbsp; &amp;nbsp;&#39;petugas&#39;, &#39;admin&#39;)&amp;nbsp;" style="text;strokeColor=none;fillColor=none;align=left;verticalAlign=top;spacingLeft=4;spacingRight=4;overflow=hidden;rotatable=0;points=[[0,0.5],[1,0.5]];portConstraint=eastwest;whiteSpace=wrap;html=1;" vertex="1" parent="6EDu84q0JYohri3k5mZR-9">
          <mxGeometry y="130" width="140" height="40" as="geometry" />
        </mxCell>
        <mxCell id="6EDu84q0JYohri3k5mZR-15" value="+ login()&lt;div&gt;+ logout()&lt;/div&gt;&lt;div&gt;+ register()&lt;/div&gt;&lt;div&gt;+ ubahProfil&lt;/div&gt;" style="text;strokeColor=default;fillColor=none;align=left;verticalAlign=top;spacingLeft=4;spacingRight=4;overflow=hidden;rotatable=0;points=[[0,0.5],[1,0.5]];portConstraint=eastwest;html=1;whiteSpace=wrap;" vertex="1" parent="6EDu84q0JYohri3k5mZR-9">
          <mxGeometry y="170" width="140" height="80" as="geometry" />
        </mxCell>
      </root>
    </mxGraphModel>
  </diagram>
</mxfile>
